<?xml version="1.0" encoding="utf-8"?>
<!-- Generator: Adobe Illustrator 17.0.0, SVG Export Plug-In . SVG Version: 6.00 Build 0)  -->
<!DOCTYPE svg PUBLIC "-//W3C//DTD SVG 1.1//EN" "http://www.w3.org/Graphics/SVG/1.1/DTD/svg11.dtd">
<svg version="1.1" id="_x3C_Layer_x3E_" xmlns="http://www.w3.org/2000/svg" xmlns:xlink="http://www.w3.org/1999/xlink" x="0px"
	 y="0px" width="254.726px" height="264.226px" viewBox="0 0 254.726 264.226" enable-background="new 0 0 254.726 264.226"
	 xml:space="preserve">
<path opacity="0.05" d="M59.466,134.309h-8.313v10.525h8.313V134.309z M23.097,213.926c12.001,15.855,33.111,12.242,33.111,12.242
	c2.558-22.443-6.527-29.713-6.527-29.713c-5.639,11.902,2.889,26.289,2.889,26.289C39.742,210.895,23.097,213.926,23.097,213.926z
	 M44.996,90.785l-4.031-3.77c-9.756,2.479-16.849,11.129-16.849,11.129c4.585-10.961,2.107-21.217,0.052-26.662l-2.935-2.404
	c-8.462,16.049,0.915,33.652,0.915,33.652C35.162,99.6,41.764,94.461,44.996,90.785z M72.234,237.203
	c-0.425-6.963-1.695-12.041-3.256-16.102l-8.025,0.012c2.168,7.615,7.098,13.359,7.098,13.359
	c-14.696-9.447-30.555-3.574-30.555-3.574C52.07,244.434,72.234,237.203,72.234,237.203z M70.267,118.246v91.404h45.273
	c5.128,0.133,10.397,4.146,10.397,4.146v-73.119c-27.433-0.596-32.96-22.432-32.96-22.432H70.267z M91.701,173.816h-3.397v17.689
	h-4.294v-17.689h-3.373v-4.035h11.064V173.816z M113.058,191.85c-1.215,0-2.711-0.369-3.689-1.096v-4.09
	c1.008,0.689,1.984,1.16,3.252,1.16c1.383,0,2.479-0.928,2.479-2.369c0-1.666-1.331-2.307-2.535-3.172
	c-2.479-1.67-4.006-3.279-4.006-6.449c0-3.432,1.99-6.396,5.678-6.396c1.379,0,2.619,0.373,3.803,1.064v4.178
	c-0.865-0.746-1.931-1.379-3.112-1.379c-1.328,0-2.163,0.805-2.163,2.125c0,3.578,6.54,3.779,6.54,9.654
	C119.303,188.939,117.087,191.85,113.058,191.85z M116.237,143.332h4.293v21.725h-4.293V143.332z M102.742,143.332h4.324
	c2.732,0,7.627,0.287,7.627,6.225c0,2.391-0.947,4.434-3.078,5.609l3.776,9.891h-4.527l-3.769-10.027h-0.059v10.027h-4.295V143.332z
	 M107.261,191.506h-4.58l-0.808-3.658h-4.347l-0.785,3.658H92.48l5.047-21.725h4.517L107.261,191.506z M101.861,143.332v4.033
	h-4.348v4.727h3.829v4.033h-3.829v4.896h4.407v4.035h-8.698v-21.691l-6.015,21.691h-3.515l-6.277-21.725h4.608l2.593,10.434
	c0.376,1.232,0.519,2.475,0.774,3.711h0.06c0.232-1.268,0.322-2.502,0.663-3.773l2.62-10.371H101.861z M175.377,71.02l-13.574,14.77
	l0.139,23.592c0,0-0.414,3.883-1.244,5.812h8.723l24.928-24.928L175.377,71.02z M59.74,184.031h-8.312v10.518h8.312V184.031z
	 M73.306,81.963l17.458,17.166V85.844L73.306,68.389V81.963z M59.545,229.087c1.09,0,1.973-0.885,1.973-1.974
	c0-1.091-0.883-1.975-1.973-1.975c-1.09,0-1.975,0.884-1.975,1.975C57.571,228.202,58.455,229.087,59.545,229.087z M27.933,88.453
	c0,1.089,0.884,1.975,1.975,1.975c1.09,0,1.973-0.886,1.973-1.975c0-1.09-0.883-1.975-1.973-1.975
	C28.817,86.479,27.933,87.363,27.933,88.453z M59.66,214.696c0.08,0.892,0.244-0.206,0.244-0.206v-12.835l-2.12,2.351
	C58.992,207.239,59.408,211.898,59.66,214.696z M90.764,105.711v-2.697L77.878,90.133H47.693l17.052,15.578H90.764z M25.272,69.049
	c0,0-1.125-7.029,6.21-17.561H6.699C6.699,51.488,7.752,54.369,25.272,69.049z M3.791,107.717
	c-4.434,19.393,11.907,33.244,11.907,33.244c18.833-12.469,18.558-24.104,18.558-24.104c-12.74,3.324-18.281,19.113-18.281,19.113
	C16.81,118.52,3.791,107.717,3.791,107.717z M18.39,116.697c3.845-17.039-7.094-29.936-7.094-29.936
	c-7.736,18.324,5.955,34.803,5.955,34.803c20.711-9.004,22.461-20.51,22.461-20.51C26.587,102.115,18.39,116.697,18.39,116.697z
	 M20.132,124.828c0-1.09-0.883-1.975-1.973-1.975c-1.091,0-1.975,0.885-1.975,1.975c0,1.09,0.884,1.975,1.975,1.975
	C19.249,126.803,20.132,125.918,20.132,124.828z M121.107,224.754h12.994c0,0,0.85-5.646,4.519-5.646h53.963V124.18l-5.367-5.654
	v94.078h-48.314c0,0-6.494,0.566-11.584,6.777c0,0-3.953-5.926-12.43-6.49H67.711v-93.514l-5.793,5.789v93.941h52.689
	C114.607,219.107,121.107,219.381,121.107,224.754z M36.544,50.299c-13.532,14.574-6.303,34.734-6.303,34.734
	c22.543-1.373,28.116-11.584,28.116-11.584c-12.696-3.494-25.386,7.41-25.386,7.41C42.419,66.156,36.544,50.299,36.544,50.299z
	 M100.145,178.662l-0.489-3.297h-0.057l-0.465,3.297l-0.921,5.779h3.03L100.145,178.662z M224.816,219.512
	c3.277-2.037,6.406-4.813,8.994-8.615c0,0-7.137-0.928-15.492,1.891L224.816,219.512z M238.543,133.361
	c0,0-5.91-15.652-18.732-18.678c0,0-0.002,11.639,19.123,23.658c0,0,16.012-14.232,11.125-33.516
	C250.058,104.826,237.298,115.938,238.543,133.361z M214.525,180.084c0,0-7.479,8.916-0.559,30.412c0,0,21.412-0.611,30.059-18.51
	c0,0-16.908,0.301-27.166,14.445C216.859,206.432,222.394,190.645,214.525,180.084z M238.023,152.777
	c0,0-3.098-16.451-15.197-21.648c0,0-2.023,11.465,14.719,26.617c0,0,18.246-11.23,16.775-31.068
	C254.32,126.678,239.828,135.404,238.023,152.777z M222.933,147.846c0,0-3.979,10.938,9.877,28.771c0,0,19.914-7.889,21.916-27.68
	c0,0-15.787,6.07-20.578,22.867C234.148,171.805,233.945,155.072,222.933,147.846z M235.605,162.531
	c1.092,0,1.975-0.886,1.975-1.975c0-1.091-0.883-1.975-1.975-1.975s-1.973,0.884-1.973,1.975
	C233.632,161.645,234.513,162.531,235.605,162.531z M224.07,196.3c0-1.09-0.883-1.974-1.975-1.974c-1.09,0-1.973,0.884-1.973,1.974
	c0,1.092,0.883,1.975,1.973,1.975C223.187,198.274,224.07,197.392,224.07,196.3z M57.242,78.736h0.021
	c-0.79,0.617-6.277,5.627-14.629,6.645l2.848,2.674l29.906-0.139l-9.278-9.275h-0.011l-4.698-4.711
	C61.401,73.93,58.073,78.18,57.242,78.736z M172.875,175.51h-0.057l-0.461,3.283l-0.92,5.793h3.018l-1.096-5.793L172.875,175.51z
	 M110.519,149.588c0-1.562-0.746-2.826-2.908-2.711h-0.574v5.791l0.75,0.025C109.746,152.693,110.519,151.373,110.519,149.588z
	 M128.98,140.127v73.67c0,0,4.154-4.146,9.971-4.146h45.707v-91.404h-24.656C160.002,118.246,153.003,139.805,128.98,140.127z
	 M134.488,143.473h4.295v17.689h4.488v4.027h-8.783V143.473z M148.414,191.65l-1.033-15.654h-0.062l-0.693,5.367l-1.84,10.287
	h-3.311l-2.107-10.41l-0.723-4.836v-0.408h-0.053l-0.639,15.654h-4.607l1.898-21.725h5.652l2.104,12.82h0.053l1.732-12.82h5.762
	l2.277,21.725H148.414z M175.898,191.65l-0.803-3.67h-4.352l-0.777,3.67h-4.262l5.039-21.725h4.523l5.219,21.725H175.898z
	 M162.828,143.473h4.834l1.242,3.025c0.369,1.064,0.809,2.184,1.037,3.312h0.055c0.23-1.129,0.58-2.219,0.979-3.312l1.295-3.025
	h4.642l-4.642,10.512l4.986,11.205h-4.986l-1.377-3.451c-0.402-1.1-0.666-2.162-0.951-3.256h-0.057
	c-0.318,1.094-0.578,2.156-0.953,3.256l-1.27,3.451h-4.834l4.604-11.205L162.828,143.473z M164.002,169.926v4.029h-4.354v4.723
	h3.832v4.037h-3.832v4.895h4.41v4.041h-8.697v-21.725H164.002z M152.949,161.646c2.098,0,2.098-1.584,2.131-3.199v-14.975h4.291
	v15.844c0,2.305-0.262,6.219-6.451,6.219c-4.008,0-6.396-1.867-6.396-5.934v-16.129h4.291v14.055
	C150.814,159.174,150.615,161.646,152.949,161.646z M70.611,65.967c0,0-1.943,2.836-9.35,4.43l9.35,8.652V65.967z M94.348,103.783
	c0,22.994,14.41,33.606,32.183,33.606c17.794,0,32.22-10.576,32.22-33.606c0-23.02,0-65.543,0-65.543H94.357
	C94.357,38.24,94.348,80.812,94.348,103.783z M109.867,57.344V47.65h30.189v13.852h9.969v9.969h-9.689v4.434h9.689v10.801h-9.689
	v32.41h-8.309l-11.5-11.5l-10.516,10.527l-7.621-7.617l17.449-17.449l9.002,9.002V57.344H109.867z M66.833,108.135l7.692,6.783
	h17.341c-0.829-1.379-0.558-6.643-0.558-6.643L66.833,108.135z M206.378,194.788c0,0-1.398,1.471-1.863,3.714l4.18,4.326
	C208.459,200.122,207.769,197.376,206.378,194.788z M42.349,212.508c6.413-21.654-1.271-30.379-1.271-30.379
	c-7.623,10.727-1.717,26.381-1.717,26.381c-10.582-13.896-27.499-13.807-27.499-13.807
	C20.932,212.404,42.349,212.508,42.349,212.508z M41.284,69.018c22.437,2.555,29.7-6.529,29.7-6.529
	c-11.89-5.648-26.287,2.883-26.287,2.883c11.856-12.83,8.826-29.475,8.826-29.475C37.664,47.9,41.284,69.018,41.284,69.018z
	 M88.251,227.727c1.06,13.129,15.644,21.32,15.644,21.32c-17.037-3.842-29.941,7.1-29.941,7.1
	c18.328,7.73,34.806-5.953,34.806-5.953C99.752,229.48,88.251,227.727,88.251,227.727z M31.071,196.65
	c10.077-20.203,4.027-30.143,4.027-30.143c-9.378,9.246-6.276,25.689-6.276,25.689c-8.008-15.527-24.684-18.371-24.684-18.371
	C9.999,192.83,31.071,196.65,31.071,196.65z M76.351,221.158l-2.803-0.02c-0.159,12.404,11.791,22.191,11.791,22.191
	c-16.115-6.748-30.717,1.783-30.717,1.783c16.705,10.803,35.303,0.18,35.303,0.18C86.306,230.203,79.961,223.73,76.351,221.158z
	 M34.764,230.524c0,0,3.079-1.827,7.539-2.487l-4.948-1.174l-0.476,0.623c0.276-0.388,0.476-0.623,0.476-0.623l-21.929,23.08
	c0,0-2.497,3.6-0.142,5.959c0,0,2.213,1.803,5.262-0.273l21.364-18.68C39.743,235.832,35.026,231.901,34.764,230.524z
	 M22.716,179.078c13.437-18.154,9.195-28.988,9.195-28.988c-10.832,7.484-10.639,24.211-10.639,24.211
	c-5.19-16.68-21.117-22.381-21.117-22.381C2.628,171.66,22.716,179.078,22.716,179.078z M33.977,49.141L8.014,23.17
	c0,0-10.863,7.787-2.425,25.971H33.977z M45.72,39.689L30.451,24.275c-9.453-9.451-20.667-3.217-20.667-3.217l30.081,29.949
	C41.873,43.322,45.72,39.689,45.72,39.689z M17.59,163.064c0,1.091,0.884,1.975,1.975,1.975c1.09,0,1.973-0.884,1.973-1.975
	c0-1.089-0.883-1.975-1.973-1.975C18.474,161.09,17.59,161.976,17.59,163.064z M17.541,160.328
	c16.384-15.551,14.088-26.955,14.088-26.955c-11.968,5.482-14.682,21.994-14.682,21.994C14.738,138.043,0.039,129.66,0.039,129.66
	C-0.955,149.529,17.541,160.328,17.541,160.328z M31.924,198.567c0,1.092,0.884,1.975,1.975,1.975c1.09,0,1.973-0.883,1.973-1.975
	c0-1.09-0.883-1.975-1.973-1.975C32.808,196.593,31.924,197.478,31.924,198.567z M197.105,227.377c1.092,0,1.975-0.884,1.975-1.975
	c0-1.091-0.883-1.975-1.975-1.975c-1.088,0-1.973,0.884-1.973,1.975C195.132,226.493,196.017,227.377,197.105,227.377z
	 M207.593,224.817l-6.94-5.661c0.147,1.766,0.373,3.639,0.703,5.633C201.357,224.789,203.859,225.087,207.593,224.817z
	 M227.019,189.873c0,0,2.711-16.512-6.877-25.533c0,0-5.824,10.072,4.725,30.041c0,0,20.984-4.314,26.393-23.453
	C251.259,170.928,234.656,174.166,227.019,189.873z M95.365,244.967c0-1.091-0.883-1.975-1.973-1.975
	c-1.091,0-1.975,0.884-1.975,1.975c0,1.091,0.884,1.975,1.975,1.975C94.482,246.941,95.365,246.058,95.365,244.967z
	 M188.789,233.053c0,0,4.277-5.115,6.389-12.33l-8.031-0.129c-1.27,3.938-2.236,8.947-2.473,15.293c0,0,17.346,5.766,31.229-4.291
	l-5.346-4.303C204.628,226.967,196.496,227.842,188.789,233.053z M194.627,201.062v10.521l47.088,39.055h9.416l-47.926-49.576
	H194.627z M125.66,246.48v4.926c-2.273-3.584-11.148-16.561-21.169-17.199c0,0,3.405,11.604,18.412,18.414
	c0,0-18.821,1.25-26.504,11.553c0,0,16.412,1.48,29.262-11.291v8.008h4.988v-8.586v-5.824H125.66z M133.968,252.578
	c14.955-6.924,18.279-18.557,18.279-18.557c-11.633,0.83-21.6,18.283-21.6,18.283c13.014,13.291,29.906,11.631,29.906,11.631
	C152.802,253.686,133.968,252.578,133.968,252.578z M153.296,248.469c0,0,14.389-8.535,15.141-21.68c0,0-11.463,2.02-19.975,22.939
	c0,0,16.787,13.291,34.932,5.137C183.394,254.865,170.244,244.227,153.296,248.469z M171.716,242.312c0,0,11.168-9.6,11.275-21.58
	l-3.994,0.152c-3.611,3.166-8.891,9.898-11.83,23.506c0,0,18.855,10.182,35.295-0.996
	C202.462,243.395,187.662,235.189,171.716,242.312z M161.814,244.207c0,1.089,0.885,1.974,1.975,1.974
	c1.092,0,1.975-0.885,1.975-1.974c0-1.091-0.883-1.975-1.975-1.975C162.699,242.232,161.814,243.116,161.814,244.207z
	 M231.582,100.273c0,0,10.188-18.844-1.002-35.295c0,0-8.191,14.799-1.064,30.756c0,0-10.906-12.687-23.98-11.148
	C205.535,84.586,209.509,95.521,231.582,100.273z M183.685,56.215l5.973-6.184c-5.088-1.178-14.652-2.873-22.375,2.887
	C167.283,52.918,171.255,57.424,183.685,56.215z M223.437,88.18c1.09,0,1.975-0.885,1.975-1.975c0-1.09-0.885-1.975-1.975-1.975
	c-1.092,0-1.973,0.885-1.973,1.975C221.464,87.295,222.345,88.18,223.437,88.18z M236.927,118.986c0,0,13.299-16.795,5.135-34.937
	c0,0-10.635,13.156-6.393,30.105c0,0-8.531-14.391-21.684-15.146C213.986,99.008,216.011,110.469,236.927,118.986z M208.191,24.41
	c6.215,3.088,11.23-0.152,11.23-0.152c6.932-3.396,11.943,1.316,11.943,1.316c4.832,3.775,4.039,8.748,4.039,8.748
	c0,3.807-1.096,4.07-1.096,4.07c-2.301,1.584-1.73-1.094-1.73-1.094c0.072-0.033,0.527-1.881,0.527-1.881
	c0.904-8.596-6.814-9.838-6.814-9.838c-8.186-1.432-10.229,6.139-10.229,6.139c-0.52,2.078-0.562,3.934-0.332,5.562L205.5,27.053
	l0.482,8.652l22.85,22.848h8.172l-8.297-8.295c4.387,1.375,8.229,1.518,8.229,1.518c11.666-0.715,12.889-11.871,12.889-11.871
	c3.076-11.662-7.977-21.078-7.977-21.078c-7.367-6.34-18.521-6.853-18.521-6.853C207.466,10.135,201.837,0,201.837,0
	c-1.863,4.613-1.377,11.441-1.377,11.441C201.515,21.955,208.191,24.41,208.191,24.41z M234.123,122.22
	c0,1.091,0.881,1.974,1.973,1.974c1.092,0,1.975-0.883,1.975-1.974c0-1.091-0.883-1.974-1.975-1.974
	C235.003,120.246,234.123,121.129,234.123,122.22z M190.832,48.516l4.822-4.895c-2.043-6.906-6.199-15.238-16.475-20.201
	C179.179,23.42,178.757,38.197,190.832,48.516z M202.943,184.996h-8.316v10.525h8.316V184.996z M209.402,80.724
	c3.668,1.042,8.172,1.819,13.684,2.048c0,0,2.502-7.448,1.41-16.5l-7.195,6.89c0.779,1.829,1.76,3.67,2.978,5.487
	c0,0-1.988-1.637-5.158-3.4L209.402,80.724z M51.544,58.257c0,1.09,0.884,1.974,1.975,1.974c1.09,0,1.973-0.884,1.973-1.974
	c0-1.092-0.883-1.975-1.973-1.975C52.428,56.282,51.544,57.165,51.544,58.257z M225.367,60.631l-21.326-21.322l-19.111,20.768
	l20.502,20.221L225.367,60.631z M180.082,61.326l-4.291,5.127l23.27,23.266l4.707-4.709L180.082,61.326z M202.521,133.479h-8.309
	v10.523h8.309V133.479z M102.976,32.98c0,0,6.538,4.324,18.02-3.594C120.996,29.387,106.777,23.547,102.976,32.98z M177.068,40.434
	c0,0-6.461-1.961-14.613,0.822l-0.021,7.437c4.971-0.096,10.018-1.293,19.146-6.117c0,0-4.32-20.977-23.455-26.381
	C158.125,16.195,161.361,32.795,177.068,40.434z M91.308,49.695l0.152-7.238c-8.057-2.365-16.209-0.832-16.209-0.832
	c15.523-8.004,18.367-24.678,18.367-24.678c-19.004,5.854-22.828,26.928-22.828,26.928C79.556,48.244,86.386,49.58,91.308,49.695z
	 M85.327,53.885c-10.736-7.631-26.392-1.723-26.392-1.723c13.9-10.58,13.809-27.496,13.809-27.496
	c-17.702,9.068-17.81,30.49-17.81,30.49C76.589,61.574,85.327,53.885,85.327,53.885z M84.106,37.997c0,1.09,0.884,1.975,1.975,1.975
	c1.09,0,1.973-0.884,1.973-1.975c0-1.09-0.883-1.974-1.973-1.974C84.99,36.022,84.106,36.906,84.106,37.997z M88.886,35.916
	l14.896-0.211c-4.629-2.787-9.696-2.687-9.696-2.687c16.682-5.191,21.434-20.055,21.434-20.055
	c-19.73,2.469-27.154,22.564-27.154,22.564C88.627,35.719,88.632,35.723,88.886,35.916z M168.419,36.921
	c0-1.091-0.883-1.975-1.975-1.975c-1.09,0-1.973,0.883-1.973,1.975c0,1.089,0.883,1.974,1.973,1.974
	C167.537,38.895,168.419,38.01,168.419,36.921z M157.962,33.018c0,0-5.072-0.1-9.693,2.687l14.887,0.211
	c0.264-0.193,0.27-0.197,0.529-0.389c0,0-7.422-20.096-27.158-22.564C136.527,12.963,141.287,27.826,157.962,33.018z
	 M125.938,30.732c1.459,0,2.64-1.185,2.64-2.646c0-1.457-1.181-2.642-2.64-2.642c-1.462,0-2.647,1.185-2.647,2.642
	C123.29,29.547,124.476,30.732,125.938,30.732z M149.064,32.107c-4.158-9.283-18.143-2.912-18.143-2.912
	C142.691,36.678,149.064,32.107,149.064,32.107z"/>
<rect x="-191.7" y="-358.53" fill="none" width="637.795" height="841.891"/>
</svg>
